<svg xmlns="http://www.w3.org/2000/svg" xmlns:xlink="http://www.w3.org/1999/xlink" width="10.038" height="9.6" viewBox="0 0 10.038 9.6">
  <defs>
    <linearGradient id="linear-gradient" x1="0.5" x2="0.5" y2="1" gradientUnits="objectBoundingBox">
      <stop offset="0" stop-color="#ffbb3b"/>
      <stop offset="1" stop-color="#ffa90a"/>
    </linearGradient>
  </defs>
  <g id="Group_16" data-name="Group 16" transform="translate(-164 -447)">
    <path id="star-2" d="M5.5,1.348,6.637,3.642a.54.54,0,0,0,.407.3l2.532.368a.541.541,0,0,1,.3.922L8.043,7.013a.541.541,0,0,0-.155.478l.432,2.522a.541.541,0,0,1-.784.57L5.271,9.393a.541.541,0,0,0-.5,0L2.5,10.583a.541.541,0,0,1-.784-.57l.432-2.522A.541.541,0,0,0,2,7.013L.164,5.228a.54.54,0,0,1,.3-.922L3,3.938a.54.54,0,0,0,.407-.3L4.535,1.348A.54.54,0,0,1,5.5,1.348Z" transform="translate(164 445.953)" fill="url(#linear-gradient)"/>
  </g>
</svg>
