<svg xmlns="http://www.w3.org/2000/svg" width="22.159" height="22.165" viewBox="0 0 22.159 22.165">
  <g id="Icon_ionic-md-bookmarks" data-name="Icon ionic-md-bookmarks" transform="translate(-4.5 -4.5)">
    <path id="Path_27" data-name="Path 27" d="M28.491,4.5H27.014a2.315,2.315,0,0,1,1.6,2.464V24.2a2.247,2.247,0,0,1-1.6,2.464h1.477A2.778,2.778,0,0,0,31.5,24.2V6.964A2.778,2.778,0,0,0,28.491,4.5Z" transform="translate(-4.841)" fill="#c6c6c6"/>
    <path id="Path_28" data-name="Path 28" d="M20.036,4.512c-.077-.006-.155-.012-.232-.012H6.857A2.418,2.418,0,0,0,4.5,6.964V24.2a2.418,2.418,0,0,0,2.357,2.464H19.809c.077,0,.155-.006.232-.012A2.433,2.433,0,0,0,22.166,24.2V6.964A2.442,2.442,0,0,0,20.036,4.512ZM12.447,15.579,9.357,13.733,6.266,15.579V6.347h6.181Z" fill="#c6c6c6"/>
  </g>
</svg>
